<svg width="340" height="72" viewBox="0 0 340 72" fill="none" xmlns="http://www.w3.org/2000/svg" role="img" aria-labelledby="presentlyLogoTitle presentlyLogoDesc">
  <title id="presentlyLogoTitle">Presently logo</title>
  <desc id="presentlyLogoDesc">A blue and indigo presentation-inspired icon followed by the word Presently.</desc>
  <defs>
    <linearGradient id="presentlyGradient" x1="10" y1="8" x2="62" y2="64" gradientUnits="userSpaceOnUse">
      <stop stop-color="#3B82F6"/>
      <stop offset="1" stop-color="#4F46E5"/>
    </linearGradient>
    <linearGradient id="presentlyAccent" x1="0" y1="0" x2="1" y2="1">
      <stop stop-color="#60A5FA"/>
      <stop offset="1" stop-color="#6366F1"/>
    </linearGradient>
    <filter id="presentlyShadow" x="0" y="0" width="72" height="72" filterUnits="userSpaceOnUse" color-interpolation-filters="sRGB">
      <feDropShadow dx="0" dy="8" stdDeviation="8" flood-color="#2563EB" flood-opacity="0.18"/>
    </filter>
  </defs>

  <g filter="url(#presentlyShadow)">
    <rect x="8" y="8" width="56" height="56" rx="18" fill="url(#presentlyGradient)"/>
    <rect x="18" y="20" width="36" height="24" rx="7" fill="white" fill-opacity="0.96"/>
    <path d="M24 28H48" stroke="#C7D2FE" stroke-width="3" stroke-linecap="round"/>
    <path d="M24 34H43" stroke="#DBEAFE" stroke-width="3" stroke-linecap="round"/>
    <path d="M18 48C18 45.7909 19.7909 44 22 44H50C52.2091 44 54 45.7909 54 48V49C54 50.6569 52.6569 52 51 52H21C19.3431 52 18 50.6569 18 49V48Z" fill="#E0E7FF" fill-opacity="0.92"/>
    <path d="M24 48H48" stroke="url(#presentlyAccent)" stroke-width="3.5" stroke-linecap="round"/>
  </g>

  <g>
    <text x="82" y="43" fill="#0F172A" font-family="Inter, ui-sans-serif, system-ui, -apple-system, BlinkMacSystemFont, 'Segoe UI', sans-serif" font-size="31" font-weight="800" letter-spacing="-0.03em">Presently</text>
    <rect x="83" y="49" width="106" height="4" rx="2" fill="url(#presentlyAccent)"/>
  </g>
</svg>
